PathFileType	4	(X/Y/Z)	/Users/itak/Documents/Research/Walk-IL/dataset/trc/00049_00006.trc
DataRate	CameraRate	NumFrames	NumMarkers	Units	OrigDataRate	OrigDataStartFrame	OrigNumFrames
100.000000	100.000000	4	53	mm	100.000000	0	499
Frame#	Time	RPSI			LPSI			L3			STRN			T10			C7			CLAV			RBAK			LBAK			LSHO			LUPA			LAEL			LAOL			LWTS			LWPS			LFRA			LIFD			LHPS			LHTS			RSHO			RUPA			RAEL			RAOL			RWTS			RWPS			RFRA			RIFD			RHTS			RHPS			RBHD			LFHD			RFHD			LBHD			LHIP			RHIP			RASI			LASI			LKNE			LTHI			LANK			LTIP			LTOE			LMT1			LMT5			LHEE			RKNE			RTHI			RANK			RTIP			RTOE			RMT1			RMT5			RHEE			
		X1	Y1	Z1	X2	Y2	Z2	X3	Y3	Z3	X4	Y4	Z4	X5	Y5	Z5	X6	Y6	Z6	X7	Y7	Z7	X8	Y8	Z8	X9	Y9	Z9	X10	Y10	Z10	X11	Y11	Z11	X12	Y12	Z12	X13	Y13	Z13	X14	Y14	Z14	X15	Y15	Z15	X16	Y16	Z16	X17	Y17	Z17	X18	Y18	Z18	X19	Y19	Z19	X20	Y20	Z20	X21	Y21	Z21	X22	Y22	Z22	X23	Y23	Z23	X24	Y24	Z24	X25	Y25	Z25	X26	Y26	Z26	X27	Y27	Z27	X28	Y28	Z28	X29	Y29	Z29	X30	Y30	Z30	X31	Y31	Z31	X32	Y32	Z32	X33	Y33	Z33	X34	Y34	Z34	X35	Y35	Z35	X36	Y36	Z36	X37	Y37	Z37	X38	Y38	Z38	X39	Y39	Z39	X40	Y40	Z40	X41	Y41	Z41	X42	Y42	Z42	X43	Y43	Z43	X44	Y44	Z44	X45	Y45	Z45	X46	Y46	Z46	X47	Y47	Z47	X48	Y48	Z48	X49	Y49	Z49	X50	Y50	Z50	X51	Y51	Z51	X52	Y52	Z52	X53	Y53	Z53	

1	0	945.38037109375	1025.103881835938	-201.74267578125	926.0572509765625	1020.928039550781	-377.8961181640625	941.6864624023438	1071.4638671875	-296.6204833984375	1178.774780273438	1273.657958984375	-306.6183471679688	914.1170043945312	1205.264282226562	-301.3409118652344	965.1973266601562	1474.12255859375	-310.9682312011719	1146.461669921875	1387.393920898438	-310.3480224609375	906.82861328125	1335.128295898438	-231.4849395751953	942.717529296875	1434.072387695312	-411.3705444335938	1046.78759765625	1437.85693359375	-484.8000793457031	1037.000244140625	1307.7177734375	-558.6146240234375	1073.182495117188	1092.680419921875	-568.2341918945312	1009.269958496094	1077.495483398438	-484.4381408691406	1178.867797851562	862.77734375	-491.9918823242188	1123.8935546875	845.4064331054688	-553.3662109375	1101.676025390625	985.1700439453125	-570.4718627929688	1201.752563476562	677.1691284179688	-464.1518859863281	1162.601318359375	767.684326171875	-544.8843994140625	1206.784301757812	781.7448120117188	-490.5244445800781	1035.29443359375	1440.652221679688	-134.0067443847656	1028.777954101562	1371.459228515625	-69.13375854492188	1019.190979003906	1101.555053710938	-46.41775512695312	1029.509033203125	1083.346069335938	-143.4604034423828	1170.59814453125	859.1844482421875	-101.5439605712891	1107.7353515625	839.5447998046875	-44.53266143798828	1037.771850585938	1023.127319335938	-42.73351287841797	1181.0322265625	674.8571166992188	-131.0848236083984	1200.967529296875	759.8984375	-107.4321975708008	1152.019165039062	751.4556884765625	-47.48455429077148	1001.339233398438	1651.438110351562	-377.8504638671875	1158.4208984375	1689.9130859375	-233.9593963623047	1172.79443359375	1698.074584960938	-358.4699096679688	994.1422729492188	1635.68115234375	-241.3715667724609	965.8668823242188	972.7094116210938	-500.1201782226562	1015.132202148438	954.5460205078125	-126.7869415283203	1139.518188476562	966.4857788085938	-153.6647186279297	1143.27685546875	959.4907836914062	-423.3783874511719	1066.667358398438	488.5270080566406	-435.7822570800781	1045.16357421875	631.1709594726562	-467.8315734863281	964.6027221679688	38.84482192993164	-458.8668518066406	1005.09912109375	256.3792419433594	-462.3124084472656	1170.417846679688	30.8326244354248	-474.6380004882812	1127.451049804688	32.21890258789062	-415.3731689453125	1062.98046875	28.86405181884766	-507.6887817382812	922.8024291992188	34.99215698242188	-378.9462280273438	1059.053833007812	505.91455078125	-148.4280700683594	1088.110961914062	776.6629638671875	-117.9303665161133	979.19091796875	34.44436264038086	-155.6822967529297	1034.549926757812	387.7296447753906	-142.373779296875	1198.194946289062	27.67295455932617	-184.5285491943359	1137.977416992188	34.35189437866211	-226.3825988769531	1104.29296875	35.55202484130859	-135.0300445556641	934.5227661132812	34.95363998413086	-213.0524444580078	
2	0.01	945.3670043945312	1025.110473632812	-201.76611328125	926.0073852539062	1020.918090820312	-377.9335327148438	941.6671752929688	1071.48974609375	-296.6464233398438	1178.81201171875	1273.66162109375	-306.6420288085938	914.1658325195312	1205.29931640625	-301.3460998535156	965.2929077148438	1474.14599609375	-310.9747009277344	1146.538452148438	1387.393310546875	-310.3777465820312	906.9431762695312	1335.177124023438	-231.4960327148438	942.7791137695312	1434.101928710938	-411.38330078125	1046.878173828125	1437.86376953125	-484.8230590820312	1037.008178710938	1307.719360351562	-558.6242065429688	1073.028686523438	1092.656616210938	-568.2159423828125	1009.078735351562	1077.52001953125	-484.4288940429688	1178.509643554688	862.6556396484375	-492.0032958984375	1123.529907226562	845.3377075195312	-553.3989868164062	1101.4208984375	985.1168823242188	-570.4695434570312	1201.376586914062	677.0469360351562	-464.1908264160156	1162.1416015625	767.590576171875	-544.931884765625	1206.413696289062	781.6236572265625	-490.5551147460938	1035.365600585938	1440.660034179688	-134.0068359375	1028.812622070312	1371.46826171875	-69.15171813964844	1019.109619140625	1101.58251953125	-46.44069290161133	1029.469360351562	1083.34423828125	-143.4786071777344	1170.183959960938	859.0291137695312	-101.4321365356445	1107.295776367188	839.5020141601562	-44.40892791748047	1037.5888671875	1023.157836914062	-42.73951721191406	1180.328002929688	674.65283203125	-130.8661041259766	1200.391967773438	759.6172485351562	-107.1958923339844	1151.447631835938	751.3385620117188	-47.29351425170898	1001.374572753906	1651.416259765625	-377.8738708496094	1158.479858398438	1689.932739257812	-234.0253601074219	1172.81982421875	1698.049926757812	-358.5166625976562	994.237060546875	1635.690185546875	-241.3822479248047	965.8095092773438	972.7614135742188	-500.1305541992188	1015.085327148438	954.5481567382812	-126.7939758300781	1139.443481445312	966.456787109375	-153.6681518554688	1143.263549804688	959.482177734375	-423.3749084472656	1066.637084960938	488.5027160644531	-435.7723388671875	1045.1728515625	631.15185546875	-467.8075256347656	964.6045532226562	38.84150314331055	-458.8677673339844	1005.08447265625	256.3792419433594	-462.3166809082031	1170.414306640625	30.83315467834473	-474.6411437988281	1127.452514648438	32.22116088867188	-415.3750305175781	1062.980224609375	28.8641471862793	-507.6900939941406	922.80078125	34.99295425415039	-378.9465637207031	1059.05322265625	505.9103088378906	-148.4185791015625	1088.07470703125	776.6533203125	-117.8998031616211	979.1925659179688	34.44253921508789	-155.6818695068359	1034.54052734375	387.728759765625	-142.3746795654297	1198.1943359375	27.67303466796875	-184.5275421142578	1137.979125976562	34.35597991943359	-226.3831176757812	1104.294311523438	35.54996109008789	-135.0245056152344	934.5250244140625	34.9499397277832	-213.0477447509766	
3	0.02	945.3505249023438	1025.119262695312	-201.7957000732422	925.9410400390625	1020.9091796875	-377.9776000976562	941.6424560546875	1071.52490234375	-296.6798095703125	1178.859985351562	1273.666259765625	-306.6716003417969	914.237060546875	1205.348510742188	-301.3504943847656	965.4196166992188	1474.17724609375	-310.9850769042969	1146.63525390625	1387.390502929688	-310.413330078125	907.0993041992188	1335.2412109375	-231.5100860595703	942.8632202148438	1434.14208984375	-411.4006652832031	1046.99658203125	1437.872436523438	-484.854248046875	1037.019653320312	1307.721435546875	-558.6371459960938	1072.824951171875	1092.624755859375	-568.1947021484375	1008.829406738281	1077.552856445312	-484.4191284179688	1178.03076171875	862.4935302734375	-492.0313415527344	1123.04345703125	845.2520751953125	-553.4544677734375	1101.080932617188	985.0524291992188	-570.4708251953125	1200.874267578125	676.8838500976562	-464.2548217773438	1161.524291992188	767.46044921875	-545.0026245117188	1205.918701171875	781.4619140625	-490.6080627441406	1035.460571289062	1440.672119140625	-134.0082397460938	1028.858764648438	1371.482299804688	-69.17633819580078	1019.003112792969	1101.620971679688	-46.46847915649414	1029.417358398438	1083.343017578125	-143.4987335205078	1169.63427734375	858.8201904296875	-101.2757873535156	1106.70751953125	839.447509765625	-44.24230194091797	1037.35009765625	1023.201599121094	-42.74234771728516	1179.390380859375	674.3760986328125	-130.5580902099609	1199.628295898438	759.2553100585938	-106.8869247436523	1150.68603515625	751.1851196289062	-47.03546524047852	1001.423156738281	1651.386596679688	-377.9076538085938	1158.5517578125	1689.956665039062	-234.1071319580078	1172.858764648438	1698.0166015625	-358.5814819335938	994.37109375	1635.703002929688	-241.3975219726562	965.7073364257812	972.8348999023438	-500.1609802246094	1015.015075683594	954.5512084960938	-126.8047714233398	1139.351318359375	966.4217529296875	-153.6778106689453	1143.243408203125	959.471435546875	-423.3718872070312	1066.603393554688	488.4766845703125	-435.7644958496094	1045.182983398438	631.1314697265625	-467.7828063964844	964.6072387695312	38.83743286132812	-458.868896484375	1005.068786621094	256.3790283203125	-462.3223876953125	1170.410278320312	30.8337287902832	-474.6446838378906	1127.453979492188	32.22332763671875	-415.377197265625	1062.97998046875	28.8641242980957	-507.6913146972656	922.7987670898438	34.99416351318359	-378.9469299316406	1059.052490234375	505.9064331054688	-148.4067230224609	1088.03271484375	776.6422729492188	-117.863395690918	979.1942138671875	34.44082641601562	-155.6817016601562	1034.529174804688	387.7276916503906	-142.3772583007812	1198.193725585938	27.67318344116211	-184.5258941650391	1137.981567382812	34.36043167114258	-226.3831481933594	1104.296142578125	35.54752731323242	-135.0183258056641	934.5277099609375	34.94586944580078	-213.0427093505859	
4	0.03	945.3319702148438	1025.1298828125	-201.8300628662109	925.8594970703125	1020.903686523438	-378.0246887207031	941.6129760742188	1071.569458007812	-296.7192687988281	1178.917236328125	1273.671630859375	-306.7055358886719	914.3319702148438	1205.412231445312	-301.352783203125	965.5744018554688	1474.215942382812	-311.0000915527344	1146.747802734375	1387.384521484375	-310.4523010253906	907.2952880859375	1335.319091796875	-231.5265045166016	942.9692993164062	1434.1923828125	-411.4224243164062	1047.139282226562	1437.882446289062	-484.8933410644531	1037.034545898438	1307.723876953125	-558.6534423828125	1072.574829101562	1092.585327148438	-568.1729125976562	1008.530395507812	1077.593139648438	-484.410400390625	1177.43896484375	862.2939453125	-492.082763671875	1122.441650390625	845.1538696289062	-553.537841796875	1100.661743164062	984.980712890625	-570.478271484375	1200.254272460938	676.6827392578125	-464.3496398925781	1160.758056640625	767.29443359375	-545.1002197265625	1205.307739257812	781.2625122070312	-490.6893615722656	1035.577270507812	1440.68896484375	-134.0117340087891	1028.915405273438	1371.502075195312	-69.20755767822266	1018.873718261719	1101.67041015625	-46.49908447265625	1029.353271484375	1083.343383789062	-143.5181427001953	1168.961059570312	858.5613403320312	-101.0745620727539	1105.981079101562	839.3837280273438	-44.03434371948242	1037.061279296875	1023.259338378906	-42.73957824707031	1178.237060546875	674.0306396484375	-130.1591644287109	1198.692626953125	758.8258056640625	-106.5140380859375	1149.747802734375	750.999755859375	-46.71375274658203	1001.484924316406	1651.349487304688	-377.9524230957031	1158.632568359375	1689.983032226562	-234.2001495361328	1172.91357421875	1697.974975585938	-358.6644897460938	994.5449829101562	1635.719604492188	-241.4177856445312	965.5435791015625	972.9324951171875	-500.2222595214844	1014.919311523438	954.5551147460938	-126.8198089599609	1139.247314453125	966.383544921875	-153.6964874267578	1143.2158203125	959.4590454101562	-423.3703918457031	1066.570922851562	488.4524841308594	-435.7615661621094	1045.19287109375	631.1123657226562	-467.76123046875	964.6107788085938	38.83291625976562	-458.8701477050781	1005.054382324219	256.3783874511719	-462.3294982910156	1170.40625	30.83428001403809	-474.6482238769531	1127.45556640625	32.22502517700195	-415.3795471191406	1062.979614257812	28.86392974853516	-507.6921997070312	922.7964477539062	34.99580001831055	-378.9473571777344	1059.0517578125	505.90380859375	-148.3934783935547	1087.9892578125	776.6311645507812	-117.8244094848633	979.1956176757812	34.43960571289062	-155.6820526123047	1034.516357421875	387.7266235351562	-142.38232421875	1198.193237304688	27.67341041564941	-184.5235290527344	1137.984619140625	34.36476898193359	-226.3825531005859	1104.298583984375	35.54494094848633	-135.0122833251953	934.530517578125	34.94197845458984	-213.0380706787109	
